<mxfile host="app.diagrams.net" modified="2023-12-12T12:07:39.325Z" agent="Mozilla/5.0 (Macintosh; Intel Mac OS X 10_15_7) AppleWebKit/537.36 (KHTML, like Gecko) Chrome/119.0.0.0 Safari/537.36" version="22.1.7" etag="pCOJ3bbpVV45kpe50dDI" type="github">
  <diagram name="Page-1" id="Bx8Z-8WxHyCHrfJPN-Qz">
    <mxGraphModel>
      <root>
        <mxCell id="0" />
        <mxCell id="1" parent="0" />
      </root>
    </mxGraphModel>
  </diagram>
</mxfile>
